<svg width="40" height="41" viewBox="0 0 40 41" fill="none" xmlns="http://www.w3.org/2000/svg">
<g clip-path="url(#clip0_2377_58946)">
<g clip-path="url(#clip1_2377_58946)">
<path fill-rule="evenodd" clip-rule="evenodd" d="M36.3067 9.57563L37.2442 7.27813C37.2442 7.27813 36.0511 6.00125 34.6023 4.55438C33.1542 3.1075 30.0867 3.95875 30.0867 3.95875L26.5936 0H14.3242L10.8311 3.95875C10.8311 3.95875 7.76359 3.1075 6.31547 4.55438C4.86672 6.00125 3.67422 7.27813 3.67422 7.27813L4.61172 9.57563L3.41797 12.98C3.41797 12.98 6.92672 26.2525 7.33797 27.8737C8.14734 31.065 8.70109 32.2987 11.0017 33.9162C13.3017 35.5331 17.4767 38.3413 18.158 38.7675C18.8398 39.1925 19.6923 39.9175 20.4592 39.9175C21.2261 39.9175 22.078 39.1925 22.7592 38.7675C23.4411 38.3419 27.6155 35.5331 29.9167 33.9162C32.2167 32.2994 32.7711 31.065 33.5805 27.8737C33.9911 26.2525 37.4992 12.98 37.4992 12.98L36.3067 9.57563Z" fill="url(#paint0_linear_2377_58946)"/>
<path fill-rule="evenodd" clip-rule="evenodd" d="M24.8046 7.19273C25.3159 7.19273 29.1077 6.46961 29.1077 6.46961C29.1077 6.46961 33.6009 11.8946 33.6009 13.0546C33.6009 14.0134 33.214 14.3884 32.759 14.8309C32.664 14.9234 32.5652 15.0184 32.4671 15.1234L29.0984 18.6965C29.0622 18.7345 29.0255 18.772 28.9884 18.809C28.6521 19.1465 28.1571 19.644 28.5059 20.4702L28.5777 20.6384C28.9609 21.5334 29.434 22.6384 28.8321 23.7571C28.1915 24.9484 27.0946 25.7434 26.3915 25.6115C25.689 25.4802 24.0377 24.6184 23.4309 24.2252C22.824 23.8315 20.8996 22.2465 20.8996 21.6396C20.8996 21.134 22.2834 20.2927 22.9559 19.8834C23.0896 19.8021 23.1952 19.7384 23.2559 19.6971C23.3252 19.6502 23.4415 19.5784 23.5846 19.4896C24.1977 19.1084 25.3059 18.4209 25.334 18.1165C25.3684 17.7402 25.3552 17.6302 24.8602 16.7015C24.7552 16.504 24.6321 16.2927 24.5052 16.074C24.034 15.2646 23.5065 14.3584 23.624 13.709C23.7552 12.9759 24.9052 12.5559 25.879 12.1996C26.0002 12.1559 26.1196 12.1121 26.2334 12.069L27.2477 11.6884C28.2202 11.3246 29.3002 10.9202 29.479 10.8384C29.7252 10.7252 29.6615 10.6165 28.9146 10.5459C28.7937 10.534 28.6729 10.5215 28.5521 10.5084C27.6271 10.4102 25.9215 10.2296 25.0927 10.4602C24.9296 10.5059 24.7471 10.5552 24.5552 10.6071C23.624 10.859 22.4821 11.1677 22.3721 11.3459C22.3534 11.3771 22.3346 11.404 22.3165 11.429C22.2115 11.5777 22.1434 11.6752 22.2596 12.3077C22.294 12.4965 22.3652 12.8671 22.4534 13.3259C22.7096 14.6684 23.1115 16.7621 23.1621 17.2321C23.169 17.2984 23.1771 17.3615 23.1846 17.4227C23.249 17.9477 23.2915 18.2971 22.6815 18.4365L22.5221 18.4727C21.8334 18.6302 20.824 18.8621 20.4596 18.8621C20.0946 18.8621 19.0846 18.6309 18.3959 18.4727L18.2371 18.4365C17.6271 18.2971 17.6702 17.9477 17.7346 17.4227C17.7421 17.3615 17.7496 17.2977 17.7565 17.2321C17.8071 16.7615 18.2096 14.6621 18.4671 13.3202C18.5546 12.864 18.6252 12.4952 18.6596 12.3077C18.7752 11.6752 18.7071 11.5777 18.6021 11.429C18.5828 11.4017 18.564 11.374 18.5459 11.3459C18.4371 11.1677 17.2959 10.859 16.364 10.6071C16.1721 10.5552 15.989 10.5059 15.8265 10.4602C14.9971 10.229 13.2921 10.4102 12.3671 10.5084C12.2259 10.5234 12.1034 10.5365 12.0046 10.5459C11.2571 10.6165 11.194 10.7252 11.4402 10.8384C11.6184 10.9202 12.6984 11.3246 13.6702 11.6884C14.0434 11.8277 14.4015 11.9615 14.6852 12.069C14.7996 12.1121 14.9184 12.1552 15.0402 12.2002C16.014 12.5565 17.164 12.9759 17.2952 13.709C17.4121 14.3584 16.8846 15.2646 16.414 16.074C16.2865 16.2927 16.164 16.504 16.0584 16.7015C15.564 17.6302 15.5509 17.7402 15.5852 18.1165C15.6127 18.4215 16.7202 19.1084 17.334 19.4896C17.4771 19.5784 17.5934 19.6502 17.6627 19.6971C17.724 19.7384 17.829 19.8021 17.9627 19.8834C18.6352 20.2921 20.019 21.1334 20.019 21.6396C20.019 22.2459 18.0952 23.8315 17.4877 24.2252C16.8815 24.619 15.2302 25.4802 14.5271 25.6115C13.8246 25.7427 12.7271 24.9484 12.0871 23.7577C11.4852 22.6384 11.9577 21.5334 12.3409 20.639L12.4127 20.4702C12.7621 19.644 12.2671 19.1465 11.9302 18.809C11.8933 18.772 11.8568 18.7345 11.8209 18.6965L8.45211 15.1234C8.35336 15.019 8.25461 14.9234 8.15961 14.8309C7.70461 14.389 7.31836 14.0134 7.31836 13.0546C7.31836 11.8952 11.8115 6.46961 11.8115 6.46961C11.8115 6.46961 15.6027 7.19273 16.114 7.19273C16.5221 7.19273 17.3096 6.92211 18.1309 6.63961C18.339 6.56836 18.549 6.49586 18.7559 6.42711C19.7777 6.08648 20.4596 6.08398 20.4596 6.08398C20.4596 6.08398 21.1409 6.08648 22.1634 6.42711C22.3696 6.49586 22.5802 6.56836 22.7884 6.63961C23.609 6.92211 24.3971 7.19273 24.8046 7.19273ZM24.154 26.384C24.9552 26.7965 25.524 27.089 25.739 27.2234C26.0171 27.3971 25.8477 27.7252 25.594 27.9046C25.3409 28.0827 21.9359 30.7165 21.6059 31.0077L21.4715 31.1271C21.1534 31.414 20.7471 31.7796 20.459 31.7796C20.1715 31.7796 19.7652 31.4134 19.4465 31.1271L19.3134 31.0077C18.9821 30.7165 15.5777 28.0827 15.3246 27.904C15.0715 27.7252 14.9015 27.3977 15.1796 27.2227C15.3946 27.089 15.964 26.7959 16.7665 26.3827L17.529 25.9896C18.729 25.3696 20.2259 24.8415 20.4596 24.8415C20.6927 24.8415 22.189 25.369 23.3902 25.9896C23.6627 26.1309 23.9184 26.2634 24.154 26.384Z" fill="white"/>
<path fill-rule="evenodd" clip-rule="evenodd" d="M30.0877 3.95875L26.5945 0H14.3252L10.832 3.95875C10.832 3.95875 7.76453 3.1075 6.31641 4.55438C6.31641 4.55438 10.4064 4.18563 11.812 6.46937C11.812 6.46937 15.6033 7.1925 16.1145 7.1925C16.6258 7.1925 17.7333 6.7675 18.7558 6.42688C19.7783 6.08625 20.4602 6.08375 20.4602 6.08375C20.4602 6.08375 21.1414 6.08625 22.1639 6.42688C23.1864 6.7675 24.2939 7.1925 24.8052 7.1925C25.3164 7.1925 29.1083 6.46937 29.1083 6.46937C30.5139 4.18563 34.6033 4.55438 34.6033 4.55438C33.1552 3.1075 30.0877 3.95875 30.0877 3.95875Z" fill="url(#paint1_linear_2377_58946)"/>
</g>
</g>
<defs>
<linearGradient id="paint0_linear_2377_58946" x1="3.41859" y1="40.1994" x2="37.4992" y2="40.1994" gradientUnits="userSpaceOnUse">
<stop stop-color="#FF5500"/>
<stop offset="0.41" stop-color="#FF5500"/>
<stop offset="0.582" stop-color="#FF2000"/>
<stop offset="1" stop-color="#FF2000"/>
</linearGradient>
<linearGradient id="paint1_linear_2377_58946" x1="6.92391" y1="7.16625" x2="34.6033" y2="7.16625" gradientUnits="userSpaceOnUse">
<stop stop-color="#FF452A"/>
<stop offset="1" stop-color="#FF2000"/>
</linearGradient>
<clipPath id="clip0_2377_58946">
<rect width="40" height="40" fill="white" transform="translate(0 0.408203)"/>
</clipPath>
<clipPath id="clip1_2377_58946">
<rect width="35" height="40" fill="white" transform="translate(3)"/>
</clipPath>
</defs>
</svg>