<svg width="40" height="41" viewBox="0 0 40 41" fill="none" xmlns="http://www.w3.org/2000/svg">
<g clip-path="url(#clip0_2377_58940)">
<g clip-path="url(#clip1_2377_58940)">
<g clip-path="url(#clip2_2377_58940)">
<path d="M20 30.4033C25.5228 30.4033 30 25.9262 30 20.4033C30 14.8805 25.5228 10.4033 20 10.4033C14.4772 10.4033 10 14.8805 10 20.4033C10 25.9262 14.4772 30.4033 20 30.4033Z" fill="white"/>
<path d="M19.9986 10.4082H37.3163C35.5614 7.36773 33.037 4.84282 29.9968 3.08741C26.9566 1.332 23.5079 0.407958 19.9973 0.408203C16.4867 0.408448 13.0381 1.33297 9.99812 3.0888C6.95818 4.84464 4.4341 7.3699 2.67969 10.4107L11.3385 25.4082L11.3463 25.4062C10.4654 23.8873 10.0006 22.163 9.99863 20.4071C9.99666 18.6513 10.4576 16.9259 11.335 15.405C12.2124 13.8841 13.4753 12.6213 14.9963 11.7441C16.5173 10.8668 18.2427 10.4061 19.9986 10.4082Z" fill="url(#paint0_linear_2377_58940)"/>
<path d="M20.0007 28.3245C24.3729 28.3245 27.9173 24.7801 27.9173 20.4079C27.9173 16.0356 24.3729 12.4912 20.0007 12.4912C15.6284 12.4912 12.084 16.0356 12.084 20.4079C12.084 24.7801 15.6284 28.3245 20.0007 28.3245Z" fill="#1A73E8"/>
<path d="M28.6585 25.41L19.9997 40.4076C23.5102 40.4081 26.9591 39.4843 29.9994 37.7291C33.0397 35.9739 35.5643 33.4492 37.3193 30.4088C39.0744 27.3684 39.998 23.9196 39.9974 20.409C39.9968 16.8984 39.0719 13.4499 37.3158 10.4102H19.9982L19.9961 10.4179C21.752 10.4145 23.4777 10.8741 24.9993 11.7503C26.5209 12.6265 27.7847 13.8884 28.6631 15.4087C29.5415 16.9291 30.0037 18.6541 30.0029 20.41C30.002 22.1658 29.5384 23.8905 28.6585 25.41Z" fill="url(#paint1_linear_2377_58940)"/>
<path d="M11.3411 25.4107L2.68222 10.4131C0.926489 13.4531 0.00208397 16.9018 0.00195314 20.4123C0.00182231 23.9229 0.92597 27.3717 2.68147 30.4118C4.43698 33.4519 6.96195 35.9763 10.0025 37.731C13.0431 39.4858 16.4921 40.4091 20.0026 40.4081L28.6615 25.4105L28.6559 25.4048C27.7809 26.9271 26.52 28.1918 25.0003 29.0715C23.4807 29.9511 21.756 30.4146 20.0002 30.4152C18.2443 30.4158 16.5193 29.9535 14.9991 29.0749C13.4788 28.1962 12.2171 26.9324 11.3411 25.4107Z" fill="url(#paint2_linear_2377_58940)"/>
</g>
</g>
</g>
<defs>
<linearGradient id="paint0_linear_2377_58940" x1="2.67969" y1="12.9082" x2="37.3163" y2="12.9082" gradientUnits="userSpaceOnUse">
<stop stop-color="#D93025"/>
<stop offset="1" stop-color="#EA4335"/>
</linearGradient>
<linearGradient id="paint1_linear_2377_58940" x1="17.2673" y1="40.1402" x2="34.5857" y2="10.144" gradientUnits="userSpaceOnUse">
<stop stop-color="#FCC934"/>
<stop offset="1" stop-color="#FBBC04"/>
</linearGradient>
<linearGradient id="paint2_linear_2377_58940" x1="22.1656" y1="39.1593" x2="4.8473" y2="9.16309" gradientUnits="userSpaceOnUse">
<stop stop-color="#1E8E3E"/>
<stop offset="1" stop-color="#34A853"/>
</linearGradient>
<clipPath id="clip0_2377_58940">
<rect width="40" height="40" fill="white" transform="translate(0 0.408203)"/>
</clipPath>
<clipPath id="clip1_2377_58940">
<rect width="40" height="40" fill="white" transform="translate(0 0.408203)"/>
</clipPath>
<clipPath id="clip2_2377_58940">
<rect width="40" height="40" fill="white" transform="translate(0 0.408203)"/>
</clipPath>
</defs>
</svg>