<svg width="40" height="40" viewBox="0 0 40 40" fill="none" xmlns="http://www.w3.org/2000/svg">
<g clip-path="url(#clip0_2377_42089)">
<g clip-path="url(#clip1_2377_42089)">
<path d="M36.1094 29.7656C35.573 30.0444 35.0198 30.2896 34.4531 30.5C32.6587 31.1679 30.7585 31.5067 28.8438 31.5C21.4531 31.5 15.0156 26.4219 15.0156 19.8906C15.0252 19.0161 15.2677 18.1599 15.7181 17.4101C16.1685 16.6604 16.8105 16.0442 17.5781 15.625C10.8906 15.9062 9.17188 22.875 9.17188 26.9531C9.17188 38.5156 19.8125 39.6719 22.1094 39.6719C23.3438 39.6719 25.2031 39.3125 26.3281 38.9531L26.5312 38.8906C30.8366 37.4028 34.5068 34.493 36.9375 30.6406C37.0081 30.5236 37.0385 30.3866 37.0238 30.2507C37.0091 30.1147 36.9503 29.9874 36.8563 29.8881C36.7624 29.7888 36.6384 29.723 36.5035 29.7009C36.3686 29.6788 36.2301 29.7015 36.1094 29.7656Z" fill="url(#paint0_linear_2377_42089)"/>
<path opacity="0.35" d="M36.1094 29.7656C35.573 30.0444 35.0198 30.2896 34.4531 30.5C32.6587 31.1679 30.7585 31.5067 28.8438 31.5C21.4531 31.5 15.0156 26.4219 15.0156 19.8906C15.0252 19.0161 15.2677 18.1599 15.7181 17.4101C16.1685 16.6604 16.8105 16.0442 17.5781 15.625C10.8906 15.9062 9.17188 22.875 9.17188 26.9531C9.17188 38.5156 19.8125 39.6719 22.1094 39.6719C23.3438 39.6719 25.2031 39.3125 26.3281 38.9531L26.5312 38.8906C30.8366 37.4028 34.5068 34.493 36.9375 30.6406C37.0081 30.5236 37.0385 30.3866 37.0238 30.2507C37.0091 30.1147 36.9503 29.9874 36.8563 29.8881C36.7624 29.7888 36.6384 29.723 36.5035 29.7009C36.3686 29.6788 36.2301 29.7015 36.1094 29.7656Z" fill="url(#paint1_radial_2377_42089)"/>
<path d="M16.5165 37.7031C15.1256 36.8393 13.9201 35.7081 12.9696 34.375C11.8842 32.8894 11.137 31.1842 10.7806 29.3791C10.4242 27.5741 10.4671 25.7129 10.9063 23.9262C11.3455 22.1395 12.1705 20.4706 13.3232 19.0365C14.4759 17.6025 15.9284 16.4381 17.579 15.625C18.079 15.3906 18.9071 14.9844 20.0165 15C20.7971 15.006 21.5658 15.1925 22.2624 15.5449C22.959 15.8973 23.5647 16.406 24.0321 17.0312C24.6608 17.8767 25.0054 18.8996 25.0165 19.9531C25.0165 19.9219 28.8446 7.51562 12.5165 7.51562C5.65708 7.51562 0.0164548 14.0156 0.0164548 19.7344C-0.0108288 22.7552 0.635014 25.7443 1.90708 28.4844C3.99032 32.9204 7.62979 36.437 12.1346 38.3669C16.6395 40.2967 21.6961 40.5053 26.3446 38.9531C24.716 39.4675 22.9952 39.6221 21.301 39.4063C19.6068 39.1905 17.9797 38.6094 16.5321 37.7031H16.5165Z" fill="url(#paint2_linear_2377_42089)"/>
<path opacity="0.41" d="M16.5165 37.7031C15.1256 36.8393 13.9201 35.7081 12.9696 34.375C11.8842 32.8894 11.137 31.1842 10.7806 29.3791C10.4242 27.5741 10.4671 25.7129 10.9063 23.9262C11.3455 22.1395 12.1705 20.4706 13.3232 19.0365C14.4759 17.6025 15.9284 16.4381 17.579 15.625C18.079 15.3906 18.9071 14.9844 20.0165 15C20.7971 15.006 21.5658 15.1925 22.2624 15.5449C22.959 15.8973 23.5647 16.406 24.0321 17.0312C24.6608 17.8767 25.0054 18.8996 25.0165 19.9531C25.0165 19.9219 28.8446 7.51562 12.5165 7.51562C5.65708 7.51562 0.0164548 14.0156 0.0164548 19.7344C-0.0108288 22.7552 0.635014 25.7443 1.90708 28.4844C3.99032 32.9204 7.62979 36.437 12.1346 38.3669C16.6395 40.2967 21.6961 40.5053 26.3446 38.9531C24.716 39.4675 22.9952 39.6221 21.301 39.4063C19.6068 39.1905 17.9797 38.6094 16.5321 37.7031H16.5165Z" fill="url(#paint3_radial_2377_42089)"/>
<path d="M23.8125 23.25C23.6719 23.4062 23.2812 23.6406 23.2812 24.125C23.2812 24.5312 23.5469 24.9375 24.0312 25.2656C26.2656 26.8281 30.5 26.6094 30.5156 26.6094C32.1813 26.6083 33.8163 26.1604 35.25 25.3125C36.6934 24.4682 37.8911 23.2613 38.7243 21.8114C39.5575 20.3616 39.9973 18.7191 40 17.0469C40.0469 13.5469 38.75 11.2187 38.2344 10.1875C34.9062 3.71875 27.7656 9.79129e-08 20 9.79129e-08C14.744 -0.000519621 9.69913 2.06797 5.95638 5.75808C2.21363 9.44819 0.0739119 14.4633 0 19.7188C0.078125 14.0156 5.75 9.40625 12.5 9.40625C13.0469 9.40625 16.1719 9.45312 19.0625 10.9688C21.0933 11.9779 22.775 13.5725 23.8906 15.5469C24.8437 17.2031 25.0156 19.3125 25.0156 20.1562C25.0156 21 24.5937 22.2344 23.7969 23.2656L23.8125 23.25Z" fill="url(#paint4_radial_2377_42089)"/>
<path d="M23.8125 23.25C23.6719 23.4062 23.2812 23.6406 23.2812 24.125C23.2812 24.5312 23.5469 24.9375 24.0312 25.2656C26.2656 26.8281 30.5 26.6094 30.5156 26.6094C32.1813 26.6083 33.8163 26.1604 35.25 25.3125C36.6934 24.4682 37.8911 23.2613 38.7243 21.8114C39.5575 20.3616 39.9973 18.7191 40 17.0469C40.0469 13.5469 38.75 11.2187 38.2344 10.1875C34.9062 3.71875 27.7656 9.79129e-08 20 9.79129e-08C14.744 -0.000519621 9.69913 2.06797 5.95638 5.75808C2.21363 9.44819 0.0739119 14.4633 0 19.7188C0.078125 14.0156 5.75 9.40625 12.5 9.40625C13.0469 9.40625 16.1719 9.45312 19.0625 10.9688C21.0933 11.9779 22.775 13.5725 23.8906 15.5469C24.8437 17.2031 25.0156 19.3125 25.0156 20.1562C25.0156 21 24.5937 22.2344 23.7969 23.2656L23.8125 23.25Z" fill="url(#paint5_radial_2377_42089)"/>
</g>
</g>
<defs>
<linearGradient id="paint0_linear_2377_42089" x1="9.17188" y1="27.6562" x2="37.0469" y2="27.6562" gradientUnits="userSpaceOnUse">
<stop stop-color="#0C59A4"/>
<stop offset="1" stop-color="#114A8B"/>
</linearGradient>
<radialGradient id="paint1_radial_2377_42089" cx="0" cy="0" r="1" gradientUnits="userSpaceOnUse" gradientTransform="translate(24.5625 27.8664) scale(14.9063 14.1609)">
<stop offset="0.7" stop-opacity="0"/>
<stop offset="0.9" stop-opacity="0.5"/>
<stop offset="1"/>
</radialGradient>
<linearGradient id="paint2_linear_2377_42089" x1="23.8602" y1="15.5625" x2="6.46958" y2="34.5156" gradientUnits="userSpaceOnUse">
<stop stop-color="#1B9DE2"/>
<stop offset="0.2" stop-color="#1595DF"/>
<stop offset="0.7" stop-color="#0680D7"/>
<stop offset="1" stop-color="#0078D4"/>
</linearGradient>
<radialGradient id="paint3_radial_2377_42089" cx="0" cy="0" r="1" gradientUnits="userSpaceOnUse" gradientTransform="translate(11.025 31.0839) rotate(-81.3844) scale(22.4041 18.1002)">
<stop offset="0.8" stop-opacity="0"/>
<stop offset="0.9" stop-opacity="0.5"/>
<stop offset="1"/>
</radialGradient>
<radialGradient id="paint4_radial_2377_42089" cx="0" cy="0" r="1" gradientUnits="userSpaceOnUse" gradientTransform="translate(4.04531 7.39313) rotate(92.2906) scale(31.6503 67.4085)">
<stop stop-color="#35C1F1"/>
<stop offset="0.1" stop-color="#34C1ED"/>
<stop offset="0.2" stop-color="#2FC2DF"/>
<stop offset="0.3" stop-color="#2BC3D2"/>
<stop offset="0.7" stop-color="#36C752"/>
</radialGradient>
<radialGradient id="paint5_radial_2377_42089" cx="0" cy="0" r="1" gradientUnits="userSpaceOnUse" gradientTransform="translate(37.5094 12.0781) rotate(73.7398) scale(15.2031 12.3632)">
<stop stop-color="#66EB6E"/>
<stop offset="1" stop-color="#66EB6E" stop-opacity="0"/>
</radialGradient>
<clipPath id="clip0_2377_42089">
<rect width="40" height="40" fill="white"/>
</clipPath>
<clipPath id="clip1_2377_42089">
<rect width="40" height="40" fill="white"/>
</clipPath>
</defs>
</svg>