<svg width="40" height="41" viewBox="0 0 40 41" fill="none" xmlns="http://www.w3.org/2000/svg">
<g clip-path="url(#clip0_2377_58942)">
<g clip-path="url(#clip1_2377_58942)">
<path d="M38.0012 13.5391C37.174 11.5488 35.4962 9.39991 34.1823 8.72062C35.1192 10.535 35.7695 12.4835 36.1101 14.4969L36.1136 14.5288C33.9613 9.16513 30.3128 6.99904 27.3314 2.28866C27.1806 2.05044 27.0298 1.81173 26.8829 1.55976C26.7989 1.41584 26.7316 1.28617 26.6732 1.16682C26.5495 0.927393 26.4543 0.674364 26.3893 0.41286C26.3894 0.400793 26.385 0.389116 26.377 0.380056C26.3691 0.370997 26.358 0.36519 26.3461 0.363742C26.3343 0.360523 26.3219 0.360523 26.3102 0.363742C26.3077 0.363742 26.3038 0.368163 26.3009 0.369145C26.2979 0.370127 26.2915 0.374548 26.2871 0.376513L26.2945 0.363742C21.5129 3.16345 19.8895 8.34536 19.7422 10.9388C17.832 11.0697 16.0056 11.7734 14.5013 12.958C14.3445 12.8251 14.1805 12.7008 14.0102 12.5857C13.5764 11.0674 13.558 9.46061 13.9566 7.93277C12.2006 8.78339 10.6403 9.98929 9.37444 11.4742H9.3656C8.61115 10.5178 8.6642 7.36448 8.70742 6.70581C8.48423 6.79551 8.27118 6.90862 8.07184 7.04325C7.40582 7.51858 6.78319 8.05195 6.21126 8.63712C5.55951 9.2979 4.96425 10.0121 4.43173 10.7723V10.7752V10.7718C3.20798 12.5064 2.33991 14.4663 1.87761 16.5382L1.85207 16.6639C1.81622 16.8314 1.68704 17.6703 1.66493 17.8526C1.66493 17.8668 1.66199 17.8801 1.66051 17.8943C1.49388 18.7604 1.39062 19.6375 1.35156 20.5187V20.6169C1.35998 25.3806 3.15398 29.9681 6.37942 33.4737C9.60486 36.9793 14.0274 39.1483 18.7739 39.5526C23.5204 39.9569 28.246 38.567 32.0178 35.6574C35.7897 32.7477 38.3337 28.5297 39.1476 23.8361C39.1795 23.5905 39.2055 23.3474 39.234 23.0993C39.6261 19.8585 39.2017 16.571 37.9992 13.5361L38.0012 13.5391ZM16.0603 28.4413C16.1492 28.4841 16.2327 28.5302 16.3241 28.571L16.3374 28.5794C16.245 28.5352 16.1527 28.4892 16.0603 28.4413ZM36.1141 14.5342V14.516L36.1175 14.5361L36.1141 14.5342Z" fill="url(#paint0_linear_2377_58942)"/>
<path d="M38.0012 13.5382C37.174 11.5479 35.4962 9.39902 34.1823 8.71973C35.1192 10.5341 35.7695 12.4826 36.1101 14.496V14.5141L36.1136 14.5343C37.5811 18.7334 37.3689 23.3372 35.5212 27.3834C33.3394 32.0648 28.0602 36.8631 19.7937 36.6274C10.8642 36.3744 2.99551 29.746 1.52689 21.0669C1.2592 19.698 1.52689 19.004 1.66147 17.8915C1.47789 18.7556 1.37545 19.6351 1.35547 20.5183V20.6165C1.36388 25.3802 3.15788 29.9677 6.38333 33.4733C9.60877 36.9789 14.0313 39.1479 18.7778 39.5522C23.5243 39.9565 28.2499 38.5666 32.0217 35.657C35.7936 32.7473 38.3376 28.5293 39.1515 23.8357C39.1834 23.5901 39.2094 23.347 39.2379 23.0989C39.63 19.8581 39.2056 16.5706 38.0031 13.5357L38.0012 13.5382Z" fill="url(#paint1_radial_2377_58942)"/>
<path d="M38.0012 13.5382C37.174 11.5479 35.4962 9.39902 34.1823 8.71973C35.1192 10.5341 35.7695 12.4826 36.1101 14.496V14.5141L36.1136 14.5343C37.5811 18.7334 37.3689 23.3372 35.5212 27.3834C33.3394 32.0648 28.0602 36.8631 19.7937 36.6274C10.8642 36.3744 2.99551 29.746 1.52689 21.0669C1.2592 19.698 1.52689 19.004 1.66147 17.8915C1.47789 18.7556 1.37545 19.6351 1.35547 20.5183V20.6165C1.36388 25.3802 3.15788 29.9677 6.38333 33.4733C9.60877 36.9789 14.0313 39.1479 18.7778 39.5522C23.5243 39.9565 28.2499 38.5666 32.0217 35.657C35.7936 32.7473 38.3376 28.5293 39.1515 23.8357C39.1834 23.5901 39.2094 23.347 39.2379 23.0989C39.63 19.8581 39.2056 16.5706 38.0031 13.5357L38.0012 13.5382Z" fill="url(#paint2_radial_2377_58942)"/>
<path d="M28.7474 15.7735C28.7887 15.8024 28.827 15.8314 28.8658 15.8604C28.3876 15.0125 27.7924 14.2362 27.0976 13.5543C21.1789 7.63565 25.5469 0.724804 26.2832 0.371157L26.2906 0.360352C21.509 3.16006 19.8856 8.34197 19.7383 10.9354C19.9603 10.9202 20.1803 10.9015 20.4073 10.9015C22.1037 10.9048 23.769 11.3572 25.2339 12.2128C26.6989 13.0683 27.9111 14.2965 28.7474 15.7725V15.7735Z" fill="url(#paint3_radial_2377_58942)"/>
<path d="M20.4173 16.9571C20.3858 17.4306 18.7129 19.0637 18.1279 19.0637C12.7151 19.0637 11.8359 22.3384 11.8359 22.3384C12.0756 25.0959 13.9971 27.3681 16.3199 28.5665C16.426 28.6215 16.5335 28.6712 16.6411 28.7198C16.8274 28.8023 17.0138 28.8786 17.2001 28.9487C17.9972 29.2308 18.8322 29.3918 19.6771 29.4266C29.1666 29.8716 31.0036 18.0804 24.1561 14.6569C25.7714 14.4467 27.4071 14.8439 28.7462 15.7714C27.9098 14.2954 26.6976 13.0672 25.2327 12.2117C23.7678 11.3561 22.1024 10.9037 20.406 10.9004C20.18 10.9004 19.959 10.9191 19.737 10.9343C17.8268 11.0652 16.0004 11.7689 14.4961 12.9535C14.7864 13.1991 15.114 13.5272 15.8042 14.2075C17.0959 15.4801 20.4089 16.7984 20.4163 16.9532L20.4173 16.9571Z" fill="url(#paint4_radial_2377_58942)"/>
<path d="M20.4173 16.9571C20.3858 17.4306 18.7129 19.0637 18.1279 19.0637C12.7151 19.0637 11.8359 22.3384 11.8359 22.3384C12.0756 25.0959 13.9971 27.3681 16.3199 28.5665C16.426 28.6215 16.5335 28.6712 16.6411 28.7198C16.8274 28.8023 17.0138 28.8786 17.2001 28.9487C17.9972 29.2308 18.8322 29.3918 19.6771 29.4266C29.1666 29.8716 31.0036 18.0804 24.1561 14.6569C25.7714 14.4467 27.4071 14.8439 28.7462 15.7714C27.9098 14.2954 26.6976 13.0672 25.2327 12.2117C23.7678 11.3561 22.1024 10.9037 20.406 10.9004C20.18 10.9004 19.959 10.9191 19.737 10.9343C17.8268 11.0652 16.0004 11.7689 14.4961 12.9535C14.7864 13.1991 15.114 13.5272 15.8042 14.2075C17.0959 15.4801 20.4089 16.7984 20.4163 16.9532L20.4173 16.9571Z" fill="url(#paint5_radial_2377_58942)"/>
<path d="M13.61 12.3257C13.7642 12.4239 13.8914 12.5094 14.0029 12.5865C13.5692 11.0682 13.5507 9.46143 13.9494 7.93359C12.1933 8.78421 10.633 9.99012 9.36719 11.475C9.46002 11.4725 12.2214 11.4229 13.61 12.3257Z" fill="url(#paint6_radial_2377_58942)"/>
<path d="M1.52352 21.0685C2.99263 29.7476 10.8608 36.3785 19.7904 36.629C28.0569 36.8628 33.337 32.064 35.5178 27.385C37.3655 23.3388 37.5777 18.735 36.1102 14.5359V14.5177C36.1102 14.5034 36.1072 14.4951 36.1102 14.4995L36.1136 14.5314C36.789 18.9407 34.5463 23.2105 31.0398 26.1035L31.029 26.1281C24.1967 31.6931 17.6592 29.4848 16.3379 28.584C16.2456 28.5398 16.1532 28.4938 16.0609 28.446C12.0779 26.5422 10.432 22.9153 10.7856 19.8013C9.84017 19.8152 8.91095 19.5547 8.11056 19.0512C7.31017 18.5478 6.67296 17.823 6.27614 16.9647C7.32176 16.3242 8.51398 15.9621 9.73919 15.9129C10.9644 15.8637 12.1818 16.1291 13.2754 16.6838C15.5296 17.707 18.0945 17.8078 20.422 16.9647C20.4147 16.81 17.1017 15.4912 15.8099 14.219C15.1198 13.5388 14.7922 13.2112 14.5019 12.9651C14.345 12.8322 14.181 12.7079 14.0107 12.5928C13.8977 12.5156 13.7705 12.4321 13.6178 12.3319C12.2292 11.4292 9.46781 11.4788 9.37645 11.4812H9.36761C8.61316 10.5249 8.66621 7.37156 8.70943 6.71289C8.48624 6.80259 8.27319 6.9157 8.07385 7.05033C7.40783 7.52566 6.78521 8.05903 6.21327 8.6442C5.55919 9.30312 4.96147 10.0157 4.42637 10.7744C3.20262 12.5091 2.33455 14.4684 1.87226 16.5403C1.86293 16.5792 1.18658 19.536 1.52008 21.0695L1.52352 21.0685Z" fill="url(#paint7_radial_2377_58942)"/>
<path d="M27.0975 13.5534C27.7925 14.2359 28.3878 15.0131 28.8658 15.8619C28.9704 15.941 29.0681 16.0196 29.1511 16.0957C33.4671 20.0742 31.2057 25.6982 31.0373 26.096C34.5433 23.2074 36.784 18.9347 36.1111 14.5239C33.9578 9.15536 30.3054 6.98928 27.3289 2.2789C27.1781 2.04068 27.0273 1.80196 26.8804 1.54999C26.7964 1.40608 26.7291 1.27641 26.6707 1.15705C26.5471 0.917628 26.4518 0.664598 26.3868 0.403094C26.3869 0.391027 26.3825 0.37935 26.3745 0.370291C26.3666 0.361232 26.3555 0.355424 26.3436 0.353976C26.3318 0.350758 26.3194 0.350758 26.3077 0.353976C26.3053 0.353976 26.3013 0.358397 26.2984 0.359379C26.2954 0.360362 26.289 0.364782 26.2846 0.366747C25.5484 0.715973 21.1813 7.63124 27.1 13.545L27.0975 13.5534Z" fill="url(#paint8_radial_2377_58942)"/>
<path d="M29.1503 16.0976C29.0673 16.0215 28.9696 15.9429 28.865 15.8638C28.8262 15.8348 28.7878 15.8058 28.7466 15.7769C27.4076 14.8494 25.7718 14.4522 24.1565 14.6624C31.0035 18.0859 29.1665 29.8741 19.6775 29.432C18.8326 29.3973 17.9977 29.2362 17.2005 28.9541C17.0142 28.8844 16.8279 28.8081 16.6415 28.7252C16.534 28.6761 16.4264 28.627 16.3203 28.572L16.3336 28.5803C17.6568 29.4836 24.1924 31.6905 31.0247 26.1245L31.0355 26.0999C31.2059 25.7021 33.4673 20.0781 29.1493 16.0996L29.1503 16.0976Z" fill="url(#paint9_radial_2377_58942)"/>
<path d="M11.836 22.3354C11.836 22.3354 12.7147 19.0607 18.128 19.0607C18.713 19.0607 20.3874 17.4276 20.4174 16.9541C18.0899 17.7971 15.5249 17.6963 13.2707 16.6731C12.1772 16.1185 10.9598 15.8531 9.73453 15.9023C8.50932 15.9514 7.3171 16.3135 6.27148 16.9541C6.6683 17.8123 7.30551 18.5371 8.1059 19.0406C8.90629 19.544 9.83551 19.8046 10.781 19.7906C10.4283 22.9032 12.0738 26.5295 16.0562 28.4353C16.1451 28.478 16.2286 28.5242 16.32 28.565C13.9952 27.3641 12.0757 25.0929 11.836 22.3369V22.3354Z" fill="url(#paint10_radial_2377_58942)"/>
<path d="M38.0021 13.5391C37.175 11.5488 35.4971 9.39991 34.1833 8.72062C35.1202 10.535 35.7705 12.4835 36.1111 14.4968L36.1146 14.5288C33.9622 9.16513 30.3138 6.99904 27.3323 2.28866C27.1815 2.05044 27.0307 1.81173 26.8839 1.55976C26.7999 1.41584 26.7326 1.28617 26.6741 1.16682C26.5505 0.927393 26.4552 0.674364 26.3902 0.41286C26.3903 0.400793 26.386 0.389116 26.378 0.380056C26.37 0.370997 26.359 0.36519 26.347 0.363742C26.3353 0.360523 26.3229 0.360523 26.3112 0.363742C26.3087 0.363742 26.3048 0.368163 26.3018 0.369145C26.2989 0.370127 26.2925 0.374548 26.2881 0.376513L26.2954 0.363742C21.5138 3.16345 19.8905 8.34536 19.7432 10.9388C19.9652 10.9235 20.1852 10.9049 20.4121 10.9049C22.1086 10.9082 23.7739 11.3606 25.2388 12.2161C26.7037 13.0717 27.916 14.2999 28.7523 15.7759C27.4133 14.8484 25.7775 14.4512 24.1623 14.6614C31.0093 18.0849 29.1723 29.8731 19.6832 29.4311C18.8383 29.3963 18.0034 29.2352 17.2062 28.9531C17.0199 28.8834 16.8336 28.8071 16.6473 28.7243C16.5397 28.6751 16.4321 28.626 16.326 28.571L16.3393 28.5794C16.247 28.5352 16.1546 28.4891 16.0623 28.4413C16.1512 28.4841 16.2347 28.5302 16.326 28.571C14.0013 27.3696 12.0818 25.0984 11.8421 22.3429C11.8421 22.3429 12.7208 19.0682 18.1341 19.0682C18.7191 19.0682 20.3935 17.4351 20.4234 16.9616C20.4161 16.8069 17.1031 15.488 15.8113 14.2159C15.1212 13.5356 14.7936 13.208 14.5033 12.9619C14.3464 12.829 14.1824 12.7048 14.0121 12.5896C13.5784 11.0713 13.5599 9.46454 13.9586 7.9367C12.2025 8.78732 10.6422 9.99322 9.37639 11.4781H9.36755C8.6131 10.5218 8.66615 7.36841 8.70937 6.70974C8.48618 6.79944 8.27313 6.91255 8.07379 7.04718C7.40777 7.52251 6.78515 8.05588 6.21321 8.64105C5.56146 9.30183 4.96621 10.016 4.43368 10.7762C3.20993 12.5108 2.34186 14.4702 1.87957 16.5421L1.85402 16.6678C1.81817 16.8353 1.65755 17.6861 1.63447 17.8688C1.48756 18.7469 1.39374 19.6331 1.35352 20.5226V20.6208C1.36193 25.3845 3.15593 29.972 6.38137 33.4776C9.60681 36.9832 14.0293 39.1523 18.7758 39.5565C23.5223 39.9608 28.2479 38.5709 32.0198 35.6613C35.7916 32.7516 38.3356 28.5337 39.1495 23.84C39.1815 23.5944 39.2075 23.3513 39.236 23.1032C39.6281 19.8624 39.2036 16.575 38.0012 13.54L38.0021 13.5391Z" fill="url(#paint11_linear_2377_58942)"/>
</g>
</g>
<defs>
<linearGradient id="paint0_linear_2377_58942" x1="35.4814" y1="6.44446" x2="3.87769" y2="36.9367" gradientUnits="userSpaceOnUse">
<stop offset="0.048" stop-color="#FFF44F"/>
<stop offset="0.111" stop-color="#FFE847"/>
<stop offset="0.225" stop-color="#FFC830"/>
<stop offset="0.368" stop-color="#FF980E"/>
<stop offset="0.401" stop-color="#FF8B16"/>
<stop offset="0.462" stop-color="#FF672A"/>
<stop offset="0.534" stop-color="#FF3647"/>
<stop offset="0.705" stop-color="#E31587"/>
</linearGradient>
<radialGradient id="paint1_radial_2377_58942" cx="0" cy="0" r="1" gradientUnits="userSpaceOnUse" gradientTransform="translate(34.2584 4.78049) scale(39.687)">
<stop offset="0.129" stop-color="#FFBD4F"/>
<stop offset="0.186" stop-color="#FFAC31"/>
<stop offset="0.247" stop-color="#FF9D17"/>
<stop offset="0.283" stop-color="#FF980E"/>
<stop offset="0.403" stop-color="#FF563B"/>
<stop offset="0.467" stop-color="#FF3750"/>
<stop offset="0.71" stop-color="#F5156C"/>
<stop offset="0.782" stop-color="#EB0878"/>
<stop offset="0.86" stop-color="#E50080"/>
</radialGradient>
<radialGradient id="paint2_radial_2377_58942" cx="0" cy="0" r="1" gradientUnits="userSpaceOnUse" gradientTransform="translate(19.5231 20.9893) scale(39.687)">
<stop offset="0.3" stop-color="#960E18"/>
<stop offset="0.351" stop-color="#B11927" stop-opacity="0.74"/>
<stop offset="0.435" stop-color="#DB293D" stop-opacity="0.343"/>
<stop offset="0.497" stop-color="#F5334B" stop-opacity="0.094"/>
<stop offset="0.53" stop-color="#FF3750" stop-opacity="0"/>
</radialGradient>
<radialGradient id="paint3_radial_2377_58942" cx="0" cy="0" r="1" gradientUnits="userSpaceOnUse" gradientTransform="translate(24.4349 -4.06024) scale(28.7486 28.7486)">
<stop offset="0.132" stop-color="#FFF44F"/>
<stop offset="0.252" stop-color="#FFDC3E"/>
<stop offset="0.506" stop-color="#FF9D12"/>
<stop offset="0.526" stop-color="#FF980E"/>
</radialGradient>
<radialGradient id="paint4_radial_2377_58942" cx="0" cy="0" r="1" gradientUnits="userSpaceOnUse" gradientTransform="translate(15.1028 31.3043) scale(18.8956 18.8956)">
<stop offset="0.353" stop-color="#3A8EE6"/>
<stop offset="0.472" stop-color="#5C79F0"/>
<stop offset="0.669" stop-color="#9059FF"/>
<stop offset="1" stop-color="#C139E6"/>
</radialGradient>
<radialGradient id="paint5_radial_2377_58942" cx="0" cy="0" r="1" gradientUnits="userSpaceOnUse" gradientTransform="translate(21.4429 17.5828) rotate(-13.5916) scale(10.02 11.731)">
<stop offset="0.206" stop-color="#9059FF" stop-opacity="0"/>
<stop offset="0.278" stop-color="#8C4FF3" stop-opacity="0.064"/>
<stop offset="0.747" stop-color="#7716A8" stop-opacity="0.45"/>
<stop offset="0.975" stop-color="#6E008B" stop-opacity="0.6"/>
</radialGradient>
<radialGradient id="paint6_radial_2377_58942" cx="0" cy="0" r="1" gradientUnits="userSpaceOnUse" gradientTransform="translate(19.0326 3.30769) scale(13.5958 13.5958)">
<stop stop-color="#FFE226"/>
<stop offset="0.121" stop-color="#FFDB27"/>
<stop offset="0.295" stop-color="#FFC82A"/>
<stop offset="0.502" stop-color="#FFA930"/>
<stop offset="0.732" stop-color="#FF7E37"/>
<stop offset="0.792" stop-color="#FF7139"/>
</radialGradient>
<radialGradient id="paint7_radial_2377_58942" cx="0" cy="0" r="1" gradientUnits="userSpaceOnUse" gradientTransform="translate(29.8379 -5.53361) scale(58.0079)">
<stop offset="0.113" stop-color="#FFF44F"/>
<stop offset="0.456" stop-color="#FF980E"/>
<stop offset="0.622" stop-color="#FF5634"/>
<stop offset="0.716" stop-color="#FF3647"/>
<stop offset="0.904" stop-color="#E31587"/>
</radialGradient>
<radialGradient id="paint8_radial_2377_58942" cx="0" cy="0" r="1" gradientUnits="userSpaceOnUse" gradientTransform="translate(25.0169 -2.31753) rotate(83.976) scale(42.5091 27.8983)">
<stop stop-color="#FFF44F"/>
<stop offset="0.06" stop-color="#FFE847"/>
<stop offset="0.168" stop-color="#FFC830"/>
<stop offset="0.304" stop-color="#FF980E"/>
<stop offset="0.356" stop-color="#FF8B16"/>
<stop offset="0.455" stop-color="#FF672A"/>
<stop offset="0.57" stop-color="#FF3647"/>
<stop offset="0.737" stop-color="#E31587"/>
</radialGradient>
<radialGradient id="paint9_radial_2377_58942" cx="0" cy="0" r="1" gradientUnits="userSpaceOnUse" gradientTransform="translate(19.0321 8.21912) scale(36.2095 36.2095)">
<stop offset="0.137" stop-color="#FFF44F"/>
<stop offset="0.48" stop-color="#FF980E"/>
<stop offset="0.592" stop-color="#FF5634"/>
<stop offset="0.655" stop-color="#FF3647"/>
<stop offset="0.904" stop-color="#E31587"/>
</radialGradient>
<radialGradient id="paint10_radial_2377_58942" cx="0" cy="0" r="1" gradientUnits="userSpaceOnUse" gradientTransform="translate(28.3641 10.1837) scale(39.633 39.633)">
<stop offset="0.094" stop-color="#FFF44F"/>
<stop offset="0.231" stop-color="#FFE141"/>
<stop offset="0.509" stop-color="#FFAF1E"/>
<stop offset="0.626" stop-color="#FF980E"/>
</radialGradient>
<linearGradient id="paint11_linear_2377_58942" x1="35.0993" y1="6.28237" x2="8.2123" y2="33.1743" gradientUnits="userSpaceOnUse">
<stop offset="0.167" stop-color="#FFF44F" stop-opacity="0.8"/>
<stop offset="0.266" stop-color="#FFF44F" stop-opacity="0.634"/>
<stop offset="0.489" stop-color="#FFF44F" stop-opacity="0.217"/>
<stop offset="0.6" stop-color="#FFF44F" stop-opacity="0"/>
</linearGradient>
<clipPath id="clip0_2377_58942">
<rect width="40" height="40" fill="white" transform="translate(0 0.408203)"/>
</clipPath>
<clipPath id="clip1_2377_58942">
<rect width="38.7245" height="40" fill="white" transform="translate(1)"/>
</clipPath>
</defs>
</svg>